<svg version="1.1" id="Layer_1" xmlns="http://www.w3.org/2000/svg" xmlns:xlink="http://www.w3.org/1999/xlink" x="0px" y="0px"
	 width="100%" viewBox="0 0 238 154" enable-background="new 0 0 238 154" xml:space="preserve">
<path fill="#03AAE9" opacity="1.000000" stroke="none" 
	d="
M239.000000,145.000000 
	C239.000000,146.066788 239.000000,147.133575 238.547958,148.589096 
	C231.157425,149.278244 224.207123,149.421631 217.285172,149.942032 
	C213.546066,150.223145 211.556229,148.848648 210.266998,145.375504 
	C207.217133,137.159103 203.746445,129.098099 200.739471,120.867004 
	C199.690109,117.994514 198.169113,116.842773 194.791916,117.226624 
	C189.544006,117.476318 184.763672,117.854210 179.515915,118.231644 
	C171.785858,118.272720 164.523239,118.314262 156.789642,118.237991 
	C152.234528,118.247261 148.149734,118.490372 144.066452,118.467133 
	C140.368454,118.446091 138.178696,119.956337 137.739090,123.740585 
	C137.728271,123.756226 137.706802,123.787628 137.385406,123.860367 
	C135.947723,125.521248 134.831436,127.109390 133.492462,128.932892 
	C131.740326,130.703140 130.210876,132.238068 128.436111,133.801819 
	C127.863091,134.011215 127.716202,134.287796 127.481735,134.853760 
	C124.749832,136.951782 122.286308,138.856415 119.466118,140.802551 
	C113.926071,143.728088 108.742691,146.612152 103.298920,149.556305 
	C102.698868,149.723221 102.359184,149.830048 101.764603,149.850555 
	C100.340790,150.209518 99.171867,150.654800 97.696671,151.142365 
	C97.000626,151.316635 96.610847,151.448654 95.831375,151.505356 
	C92.458549,151.979523 89.475410,152.529007 86.137398,153.071991 
	C84.844376,153.164352 83.906235,153.263214 82.587372,153.252625 
	C79.309074,153.196350 76.405205,153.164688 73.519447,153.377960 
	C72.975975,153.418091 72.504623,154.434235 72.000000,155.000000 
	C70.933212,155.000000 69.866425,155.000000 68.899834,154.999496 
	C67.417686,154.226212 65.835350,153.453430 63.951126,152.549286 
	C62.788052,152.261734 61.926861,152.105545 60.910442,151.783569 
	C60.464287,151.450241 60.173973,151.451279 59.534302,151.448273 
	C37.445473,145.245895 21.212255,132.300034 11.461543,111.956337 
	C0.439617,88.960411 1.267540,66.009186 13.670443,43.328548 
	C14.590556,41.740917 15.237897,40.347256 16.023699,38.842064 
	C16.162161,38.730530 16.253586,38.386894 16.559967,38.244461 
	C18.684137,35.440750 20.501928,32.779476 22.577881,29.932570 
	C24.978617,27.643824 27.121191,25.540707 29.567032,23.386314 
	C30.102661,23.013893 30.335026,22.692749 30.830130,22.250248 
	C31.689943,21.644001 32.287014,21.159113 33.165024,20.625698 
	C33.805237,20.161661 34.164513,19.746149 34.804016,19.260807 
	C35.701958,18.742329 36.319675,18.293682 37.232189,17.849789 
	C38.122746,17.375175 38.718510,16.895811 39.269108,16.324020 
	C39.223942,16.231596 39.352455,16.392265 39.643524,16.385040 
	C40.358711,16.013882 40.782829,15.649951 41.143013,15.184921 
	C41.079082,15.083823 41.230614,15.269021 41.513332,15.262274 
	C42.072025,15.014259 42.347996,14.772993 42.923416,14.445966 
	C44.133141,13.868981 45.043415,13.377758 46.327377,12.875263 
	C50.988640,11.062554 55.276222,9.261116 59.804512,7.466668 
	C60.369850,7.440911 60.674198,7.344279 61.154671,7.294830 
	C61.889549,7.206881 62.428017,7.007865 63.294956,6.815999 
	C64.034859,6.681659 64.446297,6.540169 65.198616,6.502325 
	C66.698326,6.369495 67.857140,6.133019 69.479927,5.935770 
	C74.624847,5.861679 79.305801,5.748361 84.344650,5.820410 
	C91.139061,7.325290 97.575577,8.644802 104.228271,10.098808 
	C104.770584,10.319788 105.096725,10.406275 105.602142,10.741048 
	C106.171341,11.067359 106.561264,11.145385 107.053024,11.326294 
	C107.154861,11.429176 107.442581,11.461409 107.659515,11.710708 
	C109.283020,12.544286 110.689590,13.128566 112.345016,13.919270 
	C113.903259,14.860499 115.212639,15.595305 116.676178,16.588799 
	C117.203629,16.965698 117.576912,17.083910 118.042000,17.319016 
	C118.133797,17.435911 118.420029,17.516113 118.564438,17.759632 
	C119.058456,18.109407 119.408066,18.215662 119.822739,18.183046 
	C119.887787,18.044176 119.732979,18.309296 119.854385,18.584364 
	C120.675964,19.169226 121.376129,19.479021 122.193665,19.935276 
	C122.311028,20.081736 122.663963,20.209547 122.774216,20.531143 
	C124.180069,21.728403 125.475685,22.604071 126.919449,23.691109 
	C127.613113,24.314766 128.158615,24.727051 128.789871,25.427788 
	C129.218109,25.899164 129.560623,26.082085 130.058685,26.538227 
	C131.539017,28.183107 132.863770,29.554770 134.210449,31.226658 
	C134.806229,32.044823 135.380096,32.562763 136.027710,33.296455 
	C136.249924,33.788982 136.462677,34.001308 136.785156,34.442142 
	C137.134033,34.969406 137.437469,35.203712 137.779343,35.594807 
	C137.817764,35.751595 138.054474,35.971130 138.079987,36.291924 
	C138.686569,37.290413 139.267654,37.968109 140.527100,39.436962 
	C142.666580,32.351677 144.553177,26.103905 146.624573,19.549587 
	C147.182617,18.116365 147.555847,16.989683 148.087677,15.778446 
	C148.405258,15.457312 148.386337,15.235939 148.378632,14.710169 
	C148.870239,13.449623 149.172714,12.508681 149.735077,11.330406 
	C150.379196,9.751789 150.763428,8.410507 151.321594,6.845398 
	C151.640137,6.080962 151.784775,5.540354 152.107407,4.855772 
	C152.477859,4.441003 152.518372,4.149141 152.544586,3.759095 
	C152.682236,3.681977 152.837708,3.407361 153.283081,3.421814 
	C155.813446,3.273703 157.901489,3.134790 159.972885,2.866983 
	C160.060913,2.855601 159.994476,1.649525 160.000000,1.000000 
	C160.750000,1.000000 161.500000,1.000000 162.228180,1.313822 
	C166.438721,1.948518 170.691971,2.108774 174.895065,2.654948 
	C177.150391,2.948018 179.319534,3.904432 181.570312,4.863958 
	C181.986023,6.110979 182.358963,7.055552 182.620972,8.247011 
	C183.199341,9.740582 183.888657,10.987269 184.693817,12.512726 
	C185.117752,13.528435 185.425827,14.265372 185.594604,15.197469 
	C185.866928,15.997525 186.278534,16.602423 186.795151,17.490528 
	C187.217010,18.508581 187.533844,19.243425 187.705246,20.232897 
	C188.429642,22.294893 189.299469,24.102261 190.269623,26.090153 
	C190.369949,26.270676 190.517868,26.656334 190.448685,26.960945 
	C190.676392,27.787214 190.973297,28.308874 191.383926,29.020077 
	C191.497650,29.209623 191.647125,29.625679 191.592346,29.880125 
	C191.726593,30.410360 191.915619,30.686152 192.278793,31.272449 
	C195.336609,38.471981 198.288269,45.333454 201.092072,52.254826 
	C212.873398,81.337753 224.596329,110.444366 236.423126,139.508743 
	C236.835052,140.521057 238.121277,141.177612 239.000000,142.000000 
	C239.000000,142.444443 239.000000,142.888901 238.742279,143.552704 
	C238.656387,144.181381 238.828201,144.590698 239.000000,145.000000 
M123.144035,63.645626 
	C116.268234,44.943726 102.520576,33.836472 83.162804,32.048767 
	C63.453266,30.228575 46.884159,37.530003 36.587830,55.703415 
	C26.403484,73.679184 27.782333,91.429604 39.347759,107.871262 
	C50.604961,123.874741 67.170174,130.172089 86.175018,126.832100 
	C114.462601,121.860733 132.878220,94.504486 123.144035,63.645626 
M171.392212,49.069828 
	C170.270615,46.283318 169.149002,43.496807 168.027405,40.710297 
	C163.141357,58.358833 153.042908,73.992035 151.446075,91.807823 
	C164.099075,91.807823 175.925064,91.807823 188.719482,91.807823 
	C182.744812,77.064674 177.216522,63.423004 171.392212,49.069828 
z"/>
<path fill="#000102" opacity="1.000000" stroke="none" 
	d="
M239.000000,141.531342 
	C238.121277,141.177612 236.835052,140.521057 236.423126,139.508743 
	C224.596329,110.444366 212.873398,81.337753 201.092072,52.254826 
	C198.288269,45.333454 195.336609,38.471981 192.324768,31.018192 
	C192.013428,30.177513 191.830276,29.901598 191.647125,29.625683 
	C191.647125,29.625679 191.497650,29.209623 191.426666,28.715809 
	C191.076416,27.700108 190.797150,27.178221 190.517868,26.656334 
	C190.517868,26.656334 190.369949,26.270676 190.299835,25.719303 
	C189.436707,23.438042 188.643707,21.708155 187.850693,19.978270 
	C187.533844,19.243425 187.217010,18.508581 186.853317,17.162615 
	C186.448959,16.035097 186.091431,15.518702 185.733917,15.002308 
	C185.425827,14.265372 185.117752,13.528435 184.776642,12.167427 
	C184.073059,10.362280 183.402496,9.181204 182.731918,8.000127 
	C182.358963,7.055552 181.986023,6.110979 181.667450,4.424543 
	C181.814560,2.788455 181.907272,1.894227 182.000000,1.000000 
	C200.957932,1.000000 219.915863,1.000000 239.000000,1.000000 
	C239.000000,47.687489 239.000000,94.375084 239.000000,141.531342 
z"/>
<path fill="#000305" opacity="1.000000" stroke="none" 
	d="
M147.929077,15.863003 
	C147.555847,16.989683 147.182617,18.116365 146.354980,19.735039 
	C144.595078,23.382402 143.427155,26.604616 141.937790,29.670677 
	C140.865265,31.878618 139.364319,33.878464 138.054474,35.971130 
	C138.054474,35.971130 137.817764,35.751595 137.710327,35.314583 
	C137.315170,34.634777 137.027451,34.391979 136.739746,34.149181 
	C136.462677,34.001308 136.249924,33.788982 136.006409,32.991745 
	C135.337082,31.956333 134.762817,31.441383 134.188538,30.926432 
	C132.863770,29.554770 131.539017,28.183107 129.959900,26.258751 
	C129.371750,25.517145 129.037949,25.328239 128.704132,25.139334 
	C128.158615,24.727051 127.613113,24.314766 126.848541,23.335609 
	C125.307632,21.915676 123.985802,21.062613 122.663963,20.209549 
	C122.663963,20.209547 122.311028,20.081736 122.097595,19.639545 
	C121.167107,18.901333 120.450043,18.605314 119.732979,18.309296 
	C119.732979,18.309296 119.887787,18.044176 119.679993,17.938122 
	C119.121475,17.726748 118.770752,17.621429 118.420029,17.516113 
	C118.420029,17.516113 118.133797,17.435911 117.871765,17.077559 
	C117.247154,16.589510 116.884583,16.459812 116.522011,16.330114 
	C115.212639,15.595305 113.903259,14.860499 112.212128,13.603107 
	C110.367775,12.540817 108.905182,12.001114 107.442581,11.461410 
	C107.442581,11.461409 107.154861,11.429176 106.857834,11.099141 
	C106.181496,10.676991 105.802185,10.584877 105.422867,10.492763 
	C105.096725,10.406275 104.770584,10.319788 103.996010,9.831303 
	C97.302780,6.744370 91.028625,4.210789 83.986755,5.635043 
	C79.305801,5.748361 74.624847,5.861679 69.228394,5.778047 
	C67.294502,5.853624 66.076118,6.126152 64.857727,6.398680 
	C64.446297,6.540169 64.034859,6.681659 63.103382,6.672575 
	C62.041645,6.742589 61.499954,6.963176 60.958263,7.183763 
	C60.674198,7.344279 60.369850,7.440911 59.399834,7.392456 
	C54.487530,9.169680 50.220612,11.028109 45.953693,12.886536 
	C45.043415,13.377758 44.133141,13.868981 42.642776,14.458853 
	C41.785324,14.794675 41.507969,15.031847 41.230614,15.269020 
	C41.230614,15.269021 41.079082,15.083823 40.848190,15.182850 
	C40.195683,15.652007 39.774067,16.022137 39.352455,16.392265 
	C39.352455,16.392265 39.223942,16.231596 38.959095,16.284100 
	C38.108627,16.839413 37.523010,17.342224 36.937393,17.845036 
	C36.319675,18.293682 35.701958,18.742329 34.516121,19.294617 
	C33.593365,19.823578 33.238724,20.248901 32.884087,20.674225 
	C32.287014,21.159113 31.689943,21.644001 30.536131,22.317974 
	C29.740850,22.817236 29.502308,23.127415 29.263767,23.437592 
	C27.121191,25.540707 24.978617,27.643824 22.237236,30.022863 
	C19.843483,32.994823 18.048534,35.690861 16.253586,38.386894 
	C16.253586,38.386894 16.162161,38.730530 15.681330,38.928139 
	C14.599555,40.591343 13.998611,42.056931 13.397669,43.522522 
	C1.267540,66.009186 0.439617,88.960411 11.461543,111.956337 
	C21.212255,132.300034 37.445473,145.245895 59.685230,151.620651 
	C60.186127,151.965668 60.628311,152.087692 60.628311,152.087692 
	C60.628311,152.087692 61.065670,151.949356 61.065670,151.949356 
	C61.926861,152.105545 62.788052,152.261734 63.982735,152.944168 
	C64.210815,153.980270 64.105408,154.490143 64.000000,155.000000 
	C43.024918,155.000000 22.049837,155.000000 1.037378,155.000000 
	C1.037378,103.752518 1.037378,52.505009 1.037378,1.000000 
	C51.353935,1.000000 101.708305,1.000000 152.582825,1.301092 
	C153.014557,2.203909 152.926132,2.805634 152.837708,3.407360 
	C152.837708,3.407361 152.682236,3.681977 152.375504,3.779287 
	C151.969040,3.985662 151.785202,4.095491 151.786194,4.203639 
	C151.788605,4.469420 151.876114,4.734427 151.929398,4.999745 
	C151.784775,5.540354 151.640137,6.080962 151.048782,7.077460 
	C150.226440,8.878147 149.850815,10.222945 149.475189,11.567741 
	C149.172714,12.508681 148.870239,13.449623 148.246750,14.810667 
	C147.791687,15.442245 147.792801,15.652988 147.929077,15.863003 
z"/>
<path fill="#000102" opacity="1.000000" stroke="none" 
	d="
M128.681442,133.772980 
	C130.210876,132.238068 131.740326,130.703140 133.821381,128.864609 
	C135.484268,126.969872 136.595535,125.378754 137.706802,123.787628 
	C137.706802,123.787628 137.728271,123.756226 138.090088,123.642593 
	C140.298569,120.110008 143.354706,119.817917 146.860382,119.771866 
	C150.332718,119.726250 153.794312,118.861351 157.260605,118.355804 
	C164.523239,118.314262 171.785858,118.272720 179.872681,118.434380 
	C183.173508,118.717285 185.670029,119.025421 188.121078,118.811821 
	C190.524612,118.602356 192.881912,117.862122 195.259491,117.354820 
	C198.169113,116.842773 199.690109,117.994514 200.739471,120.867004 
	C203.746445,129.098099 207.217133,137.159103 210.266998,145.375504 
	C211.556229,148.848648 213.546066,150.223145 217.285172,149.942032 
	C224.207123,149.421631 231.157425,149.278244 238.547958,148.988922 
	C239.000000,150.994583 239.000000,152.989166 239.000000,155.000000 
	C187.312439,155.000000 135.624878,155.000000 83.457291,154.590576 
	C82.974213,153.908142 82.971153,153.635101 82.968086,153.362076 
	C83.906235,153.263214 84.844376,153.164352 86.533737,153.189270 
	C90.263664,152.735580 93.242363,152.158127 96.221069,151.580673 
	C96.610847,151.448654 97.000626,151.316635 97.935257,151.280243 
	C99.659912,150.896194 100.839706,150.416534 102.019501,149.936890 
	C102.359184,149.830048 102.698868,149.723221 103.677322,149.614166 
	C109.484993,146.661652 114.653893,143.711349 119.822784,140.761063 
	C122.286308,138.856415 124.749832,136.951782 127.725327,134.821411 
	C128.561874,134.416763 128.709930,134.142532 128.681442,133.772980 
z"/>
<path fill="#052B3D" opacity="1.000000" stroke="none" 
	d="
M181.531723,1.000000 
	C181.907272,1.894227 181.814560,2.788455 181.624695,4.122097 
	C179.319534,3.904432 177.150391,2.948018 174.895065,2.654948 
	C170.691971,2.108774 166.438721,1.948518 162.603180,1.313822 
	C169.021149,1.000000 175.042297,1.000000 181.531723,1.000000 
z"/>
<path fill="#063F59" opacity="1.000000" stroke="none" 
	d="
M82.587372,153.252625 
	C82.971153,153.635101 82.974213,153.908142 82.988632,154.590576 
	C79.638710,155.000000 76.277428,155.000000 72.458069,155.000000 
	C72.504623,154.434235 72.975975,153.418091 73.519447,153.377960 
	C76.405205,153.164688 79.309074,153.196350 82.587372,153.252625 
z"/>
<path fill="#052B3D" opacity="1.000000" stroke="none" 
	d="
M153.283081,3.421813 
	C152.926132,2.805634 153.014557,2.203909 153.051483,1.301092 
	C155.041672,1.000000 157.083328,1.000000 159.562500,1.000000 
	C159.994476,1.649525 160.060913,2.855601 159.972885,2.866983 
	C157.901489,3.134790 155.813446,3.273703 153.283081,3.421813 
z"/>
<path fill="#063F59" opacity="1.000000" stroke="none" 
	d="
M64.399994,155.000000 
	C64.105408,154.490143 64.210815,153.980270 64.284615,153.075531 
	C65.835350,153.453430 67.417686,154.226212 68.500015,154.999496 
	C66.933327,155.000000 65.866661,155.000000 64.399994,155.000000 
z"/>
<path fill="#000102" opacity="1.000000" stroke="none" 
	d="
M239.000000,144.750000 
	C238.828201,144.590698 238.656387,144.181381 238.742279,143.886047 
	C239.000000,144.000000 239.000000,144.500000 239.000000,144.750000 
z"/>
<path fill="#000203" opacity="1.000000" stroke="none" 
	d="
M123.260513,64.032516 
	C132.878220,94.504486 114.462601,121.860733 86.175018,126.832100 
	C67.170174,130.172089 50.604961,123.874741 39.347759,107.871262 
	C27.782333,91.429604 26.403484,73.679184 36.587830,55.703415 
	C46.884159,37.530003 63.453266,30.228575 83.162804,32.048767 
	C102.520576,33.836472 116.268234,44.943726 123.260513,64.032516 
z"/>
<path fill="#01080B" opacity="1.000000" stroke="none" 
	d="
M171.540222,49.425583 
	C177.216522,63.423004 182.744812,77.064674 188.719482,91.807823 
	C175.925064,91.807823 164.099075,91.807823 151.446075,91.807823 
	C153.042908,73.992035 163.141357,58.358833 168.027405,40.710297 
	C169.149002,43.496807 170.270615,46.283318 171.540222,49.425583 
z"/>
<path fill="#0C5572" opacity="1.000000" stroke="none" 
	d="
M156.789642,118.237991 
	C153.794312,118.861351 150.332718,119.726250 146.860382,119.771866 
	C143.354706,119.817917 140.298569,120.110008 138.100891,123.626953 
	C138.178696,119.956337 140.368454,118.446091 144.066452,118.467133 
	C148.149734,118.490372 152.234528,118.247261 156.789642,118.237991 
z"/>
<path fill="#052B3D" opacity="1.000000" stroke="none" 
	d="
M138.079987,36.291920 
	C139.364319,33.878464 140.865265,31.878618 141.937790,29.670677 
	C143.427155,26.604616 144.595078,23.382402 146.170181,20.041580 
	C144.553177,26.103905 142.666580,32.351677 140.527100,39.436962 
	C139.267654,37.968109 138.686569,37.290413 138.079987,36.291920 
z"/>
<path fill="#063F59" opacity="1.000000" stroke="none" 
	d="
M119.466118,140.802551 
	C114.653893,143.711349 109.484993,146.661652 103.937698,149.554077 
	C108.742691,146.612152 113.926071,143.728088 119.466118,140.802551 
z"/>
<path fill="#052B3D" opacity="1.000000" stroke="none" 
	d="
M84.344650,5.820410 
	C91.028625,4.210789 97.302780,6.744370 103.779839,9.696810 
	C97.575577,8.644802 91.139061,7.325290 84.344650,5.820410 
z"/>
<path fill="#0C5572" opacity="1.000000" stroke="none" 
	d="
M194.791916,117.226624 
	C192.881912,117.862122 190.524612,118.602356 188.121078,118.811821 
	C185.670029,119.025421 183.173508,118.717285 180.340118,118.434837 
	C184.763672,117.854210 189.544006,117.476318 194.791916,117.226624 
z"/>
<path fill="#052B3D" opacity="1.000000" stroke="none" 
	d="
M46.327377,12.875265 
	C50.220612,11.028109 54.487530,9.169680 59.159126,7.385465 
	C55.276222,9.261116 50.988640,11.062554 46.327377,12.875265 
z"/>
<path fill="#052B3D" opacity="1.000000" stroke="none" 
	d="
M16.559967,38.244461 
	C18.048534,35.690861 19.843483,32.994823 21.979076,30.208494 
	C20.501928,32.779476 18.684137,35.440750 16.559967,38.244461 
z"/>
<path fill="#063F59" opacity="1.000000" stroke="none" 
	d="
M95.831375,151.505356 
	C93.242363,152.158127 90.263664,152.735580 86.888611,153.195755 
	C89.475410,152.529007 92.458549,151.979523 95.831375,151.505356 
z"/>
<path fill="#0C5572" opacity="1.000000" stroke="none" 
	d="
M137.385406,123.860367 
	C136.595535,125.378754 135.484268,126.969872 134.044083,128.629272 
	C134.831436,127.109390 135.947723,125.521248 137.385406,123.860367 
z"/>
<path fill="#0E658A" opacity="1.000000" stroke="none" 
	d="
M187.705246,20.232897 
	C188.643707,21.708155 189.436707,23.438042 190.199509,25.538778 
	C189.299469,24.102261 188.429642,22.294893 187.705246,20.232897 
z"/>
<path fill="#052B3D" opacity="1.000000" stroke="none" 
	d="
M122.774216,20.531143 
	C123.985802,21.062613 125.307632,21.915676 126.700386,23.124239 
	C125.475685,22.604071 124.180069,21.728403 122.774216,20.531143 
z"/>
<path fill="#052B3D" opacity="1.000000" stroke="none" 
	d="
M107.659515,11.710709 
	C108.905182,12.001114 110.367775,12.540817 111.963264,13.396683 
	C110.689590,13.128566 109.283020,12.544286 107.659515,11.710709 
z"/>
<path fill="#0E658A" opacity="1.000000" stroke="none" 
	d="
M182.620972,8.247011 
	C183.402496,9.181204 184.073059,10.362280 184.660797,11.888657 
	C183.888657,10.987269 183.199341,9.740582 182.620972,8.247011 
z"/>
<path fill="#052B3D" opacity="1.000000" stroke="none" 
	d="
M13.670443,43.328548 
	C13.998611,42.056931 14.599555,40.591343 15.542868,39.039673 
	C15.237897,40.347256 14.590556,41.740917 13.670443,43.328548 
z"/>
<path fill="#063F59" opacity="1.000000" stroke="none" 
	d="
M101.764603,149.850555 
	C100.839706,150.416534 99.659912,150.896194 98.241531,151.237976 
	C99.171867,150.654800 100.340790,150.209518 101.764603,149.850555 
z"/>
<path fill="#052B3D" opacity="1.000000" stroke="none" 
	d="
M65.198616,6.502325 
	C66.076118,6.126152 67.294502,5.853624 68.764427,5.738820 
	C67.857140,6.133019 66.698326,6.369495 65.198616,6.502325 
z"/>
<path fill="#052B3D" opacity="1.000000" stroke="none" 
	d="
M149.735077,11.330406 
	C149.850815,10.222945 150.226440,8.878147 150.874863,7.301288 
	C150.763428,8.410507 150.379196,9.751789 149.735077,11.330406 
z"/>
<path fill="#052B3D" opacity="1.000000" stroke="none" 
	d="
M134.210449,31.226658 
	C134.762817,31.441383 135.337082,31.956333 135.932663,32.775993 
	C135.380096,32.562763 134.806229,32.044823 134.210449,31.226658 
z"/>
<path fill="#052B3D" opacity="1.000000" stroke="none" 
	d="
M61.154671,7.294829 
	C61.499954,6.963176 62.041645,6.742589 62.774910,6.665426 
	C62.428017,7.007865 61.889549,7.206881 61.154671,7.294829 
z"/>
<path fill="#0E658A" opacity="1.000000" stroke="none" 
	d="
M185.594620,15.197467 
	C186.091431,15.518702 186.448959,16.035097 186.748306,16.879406 
	C186.278534,16.602423 185.866928,15.997525 185.594620,15.197467 
z"/>
<path fill="#052B3D" opacity="1.000000" stroke="none" 
	d="
M37.232189,17.849789 
	C37.523010,17.342224 38.108627,16.839413 39.004261,16.376522 
	C38.718510,16.895811 38.122746,17.375175 37.232189,17.849789 
z"/>
<path fill="#052B3D" opacity="1.000000" stroke="none" 
	d="
M119.854385,18.584364 
	C120.450043,18.605314 121.167107,18.901333 121.980240,19.493084 
	C121.376129,19.479021 120.675964,19.169226 119.854385,18.584364 
z"/>
<path fill="#052B3D" opacity="1.000000" stroke="none" 
	d="
M39.643524,16.385040 
	C39.774067,16.022137 40.195683,15.652007 40.912121,15.283949 
	C40.782829,15.649951 40.358711,16.013882 39.643524,16.385040 
z"/>
<path fill="#052B3D" opacity="1.000000" stroke="none" 
	d="
M152.107407,4.855773 
	C151.876114,4.734427 151.788605,4.469420 151.786194,4.203639 
	C151.785202,4.095491 151.969040,3.985662 152.237854,3.856406 
	C152.518372,4.149141 152.477859,4.441003 152.107407,4.855773 
z"/>
<path fill="#052B3D" opacity="1.000000" stroke="none" 
	d="
M33.165024,20.625698 
	C33.238724,20.248901 33.593365,19.823578 34.235893,19.364449 
	C34.164513,19.746149 33.805237,20.161661 33.165024,20.625698 
z"/>
<path fill="#0E658A" opacity="1.000000" stroke="none" 
	d="
M190.448685,26.960945 
	C190.797150,27.178221 191.076416,27.700108 191.312958,28.526264 
	C190.973297,28.308874 190.676392,27.787214 190.448685,26.960945 
z"/>
<path fill="#052B3D" opacity="1.000000" stroke="none" 
	d="
M118.564438,17.759632 
	C118.770752,17.621429 119.121475,17.726748 119.614944,18.076992 
	C119.408066,18.215662 119.058456,18.109407 118.564438,17.759632 
z"/>
<path fill="#052B3D" opacity="1.000000" stroke="none" 
	d="
M148.087677,15.778445 
	C147.792801,15.652988 147.791687,15.442245 148.057617,15.130272 
	C148.386337,15.235939 148.405258,15.457312 148.087677,15.778445 
z"/>
<path fill="#063F59" opacity="1.000000" stroke="none" 
	d="
M60.910442,151.783569 
	C61.065670,151.949356 60.628311,152.087692 60.628311,152.087692 
	C60.628311,152.087692 60.186127,151.965668 60.035198,151.793289 
	C60.173973,151.451279 60.464287,151.450241 60.910442,151.783569 
z"/>
<path fill="#052B3D" opacity="1.000000" stroke="none" 
	d="
M116.676178,16.588802 
	C116.884583,16.459812 117.247154,16.589510 117.779968,16.960663 
	C117.576912,17.083910 117.203629,16.965698 116.676178,16.588802 
z"/>
<path fill="#0C5572" opacity="1.000000" stroke="none" 
	d="
M128.436111,133.801819 
	C128.709930,134.142532 128.561874,134.416763 127.993698,134.628021 
	C127.716202,134.287796 127.863091,134.011215 128.436111,133.801819 
z"/>
<path fill="#052B3D" opacity="1.000000" stroke="none" 
	d="
M29.567032,23.386314 
	C29.502308,23.127415 29.740850,22.817236 30.273390,22.439331 
	C30.335026,22.692749 30.102661,23.013893 29.567032,23.386314 
z"/>
<path fill="#052B3D" opacity="1.000000" stroke="none" 
	d="
M128.789871,25.427788 
	C129.037949,25.328239 129.371750,25.517145 129.804352,25.985529 
	C129.560623,26.082085 129.218109,25.899164 128.789871,25.427788 
z"/>
<path fill="#052B3D" opacity="1.000000" stroke="none" 
	d="
M136.785156,34.442142 
	C137.027451,34.391979 137.315170,34.634777 137.671906,35.157795 
	C137.437469,35.203712 137.134033,34.969406 136.785156,34.442142 
z"/>
<path fill="#052B3D" opacity="1.000000" stroke="none" 
	d="
M105.602142,10.741048 
	C105.802185,10.584877 106.181496,10.676991 106.756004,10.996258 
	C106.561264,11.145385 106.171341,11.067359 105.602142,10.741048 
z"/>
<path fill="#052B3D" opacity="1.000000" stroke="none" 
	d="
M41.513332,15.262273 
	C41.507969,15.031847 41.785324,14.794675 42.343327,14.544615 
	C42.347996,14.772993 42.072025,15.014259 41.513332,15.262273 
z"/>
<path fill="#0E658A" opacity="1.000000" stroke="none" 
	d="
M191.592346,29.880127 
	C191.830276,29.901598 192.013428,30.177513 192.150604,30.707685 
	C191.915619,30.686152 191.726593,30.410360 191.592346,29.880127 
z"/>
</svg>